<?xml version="1.0" encoding="utf-8"?>
<!-- Generator: Adobe Illustrator 24.0.0, SVG Export Plug-In . SVG Version: 6.00 Build 0)  -->
<svg version="1.1" id="Capa_1" xmlns="http://www.w3.org/2000/svg" xmlns:xlink="http://www.w3.org/1999/xlink" x="0px" y="0px"
	 viewBox="0 0 1000 1000" style="enable-background:new 0 0 1000 1000;" xml:space="preserve">
<style type="text/css">
	.st0{fill:#46B8B0;}
	.st1{fill:#171219;}
	.st2{fill:#FBBA10;}
	.st3{fill:#FFFFFF;}
</style>
<g>
	<g>
		<circle class="st0" cx="500.1" cy="412.6" r="175.8"/>
	</g>
	<g>
		<path class="st1" d="M274.8,730.6c0,5.3-1.1,9.9-3.2,13.9c-2.1,4-5,7.4-8.7,10.1c-3.7,2.7-8,4.8-12.9,6.2
			c-4.9,1.4-10.1,2.1-15.6,2.1h-60.6V637.5h67.1c4.4,0,8.3,0.9,11.8,2.8c3.5,1.9,6.5,4.3,9,7.3c2.5,3,4.4,6.4,5.7,10.2s2,7.7,2,11.6
			c0,6.1-1.5,11.9-4.6,17.2c-3.1,5.4-7.5,9.3-13.4,11.9c7.2,2.1,12.9,5.9,17,11.4C272.7,715.5,274.8,722.3,274.8,730.6z
			 M198.2,658.4V690h32.5c4.1,0,7.6-1.4,10.5-4.2c2.9-2.8,4.3-6.7,4.3-11.7c0-4.8-1.3-8.7-4-11.5c-2.6-2.8-5.9-4.2-9.8-4.2H198.2z
			 M250.3,726c0-2.2-0.4-4.4-1.1-6.4c-0.8-2.1-1.8-3.9-3.1-5.4c-1.3-1.5-2.8-2.7-4.6-3.6c-1.8-0.9-3.7-1.3-5.8-1.3h-37.4v33h36.2
			c2.2,0,4.3-0.4,6.3-1.2c1.9-0.8,3.6-2,5-3.4c1.4-1.5,2.5-3.2,3.4-5.2C249.8,730.3,250.3,728.2,250.3,726z"/>
		<path class="st1" d="M334.5,764.6c-7.4,0-14.1-1.3-20.1-3.8c-6-2.5-11.1-6-15.4-10.3c-4.2-4.4-7.5-9.4-9.8-15.2
			c-2.3-5.8-3.4-11.8-3.4-18.2c0-6.6,1.1-12.8,3.4-18.6c2.2-5.8,5.5-10.9,9.7-15.4s9.4-7.9,15.4-10.5c6.1-2.6,12.9-3.9,20.4-3.9
			c7.5,0,14.3,1.3,20.2,3.9c5.9,2.6,11,6.1,15.2,10.4c4.2,4.4,7.4,9.4,9.5,15.2c2.2,5.8,3.3,11.8,3.3,18c0,1.5,0,3-0.1,4.4
			c-0.1,1.4-0.2,2.6-0.4,3.5h-71.5c0.4,3.7,1.2,6.9,2.6,9.7c1.4,2.8,3.2,5.2,5.5,7.2c2.2,2,4.8,3.5,7.6,4.6c2.8,1.1,5.8,1.6,8.8,1.6
			c4.7,0,9.2-1.1,13.3-3.4c4.2-2.3,7-5.3,8.6-9.1l20.3,5.7c-3.4,7.1-8.9,12.9-16.3,17.4C353.7,762.4,344.8,764.6,334.5,764.6z
			 M358.5,708.8c-0.6-6.9-3.1-12.5-7.7-16.7c-4.5-4.2-10-6.3-16.5-6.3c-3.2,0-6.2,0.6-8.9,1.7c-2.8,1.1-5.2,2.7-7.3,4.7
			c-2.1,2-3.9,4.4-5.2,7.2s-2.1,5.9-2.4,9.4H358.5z"/>
		<path class="st1" d="M440.2,764.6c-7.4,0-14.1-1.3-20.1-3.8c-6-2.5-11.1-6-15.4-10.3c-4.2-4.4-7.5-9.4-9.8-15.2
			c-2.3-5.8-3.4-11.8-3.4-18.2c0-6.6,1.1-12.8,3.4-18.6c2.2-5.8,5.5-10.9,9.7-15.4s9.4-7.9,15.4-10.5c6.1-2.6,12.9-3.9,20.4-3.9
			c7.5,0,14.3,1.3,20.2,3.9c5.9,2.6,11,6.1,15.2,10.4c4.2,4.4,7.4,9.4,9.5,15.2c2.2,5.8,3.3,11.8,3.3,18c0,1.5,0,3-0.1,4.4
			c-0.1,1.4-0.2,2.6-0.4,3.5h-71.5c0.4,3.7,1.2,6.9,2.6,9.7c1.4,2.8,3.2,5.2,5.5,7.2c2.2,2,4.8,3.5,7.6,4.6c2.8,1.1,5.8,1.6,8.8,1.6
			c4.7,0,9.2-1.1,13.3-3.4c4.2-2.3,7-5.3,8.6-9.1l20.3,5.7c-3.4,7.1-8.9,12.9-16.3,17.4C459.5,762.4,450.6,764.6,440.2,764.6z
			 M464.2,708.8c-0.6-6.9-3.1-12.5-7.7-16.7c-4.5-4.2-10-6.3-16.5-6.3c-3.2,0-6.2,0.6-8.9,1.7c-2.8,1.1-5.2,2.7-7.3,4.7
			c-2.1,2-3.9,4.4-5.2,7.2s-2.1,5.9-2.4,9.4H464.2z"/>
		<path class="st1" d="M557.8,758.1c-3.2,1.4-7.1,2.8-11.7,4.2c-4.6,1.4-9.4,2.1-14.5,2.1c-3.3,0-6.4-0.4-9.3-1.2
			c-2.9-0.8-5.4-2.1-7.6-4c-2.2-1.8-3.9-4.2-5.2-7.1s-1.9-6.4-1.9-10.5v-53.1h-12.2v-18.2h12.2v-30h23.7v30h19.4v18.2h-19.4v45.2
			c0,3.3,0.9,5.6,2.6,7c1.7,1.4,3.8,2,6.3,2c2.5,0,4.9-0.4,7.2-1.2c2.4-0.8,4.2-1.5,5.7-2.1L557.8,758.1z"/>
		<path class="st1" d="M625.2,690.8c-7.2,0.1-13.6,1.5-19.2,4.1c-5.6,2.7-9.7,6.6-12.2,11.9v56h-23.7v-92.5h21.7v19.8
			c1.6-3.2,3.6-6,5.8-8.6c2.2-2.5,4.6-4.7,7.2-6.6c2.6-1.9,5.2-3.3,7.9-4.3c2.6-1,5.2-1.5,7.7-1.5c1.3,0,2.3,0,2.9,0
			c0.6,0,1.3,0.1,1.9,0.2V690.8z"/>
		<rect x="638.4" y="634" class="st0" width="23.7" height="23.5"/>
		<rect x="638.4" y="670.4" class="st1" width="23.7" height="92.5"/>
		<path class="st1" d="M827.2,762.9h-23.7V711c0-7.4-1.3-12.8-3.8-16.2c-2.5-3.4-6-5.1-10.5-5.1c-4.7,0-9.1,1.8-13.2,5.4
			c-4.1,3.6-7.1,8.3-8.8,14v53.8h-23.7V711c0-7.4-1.3-12.8-3.8-16.2c-2.5-3.4-6-5.1-10.5-5.1c-4.6,0-9,1.8-13.2,5.3
			c-4.2,3.5-7.1,8.2-8.9,13.9v54h-23.7v-92.5h21.4v17.1c3.4-6,8.1-10.6,14-13.9c5.9-3.2,12.7-4.9,20.4-4.9c7.8,0,13.8,1.9,18,5.7
			c4.2,3.8,6.9,8.4,8.1,13.9c3.8-6.4,8.5-11.2,14.3-14.6c5.8-3.4,12.4-5,19.8-5c5.6,0,10.3,1.1,13.9,3.2s6.5,4.9,8.5,8.3
			c2,3.4,3.4,7.3,4.2,11.7c0.8,4.4,1.1,8.8,1.1,13.2V762.9z"/>
	</g>
	<g>
		<path class="st2" d="M537,452.2v-14.6h-73.6v14.6c0,4.2,2.1,8,5.4,10.4h62.8C534.9,460.3,537,456.4,537,452.2z"/>
		<rect x="463.4" y="387.7" class="st2" width="73.6" height="25"/>
	</g>
	<g>
		<path class="st3" d="M457,322.9c-2.2,0-4.4,0.6-6.4,1.7l-67.3,38.8c-3.9,2.3-6.4,6.5-6.4,11v77.7c0,4.5,2.4,8.8,6.4,11l67.3,38.8
			c3.9,2.3,8.8,2.3,12.7,0l24-13.9l-24-13.9c-7.9-4.5-12.8-13-12.8-22.1v-77.7c0-9.1,4.9-17.6,12.8-22.1l24-13.9l-24-13.9
			C461.4,323.5,459.2,322.9,457,322.9z"/>
		<path class="st3" d="M549.8,502.1l67.3-38.8c3.9-2.3,6.4-6.5,6.4-11v-77.7c0-4.5-2.4-8.8-6.4-11l-67.3-38.8
			c-2-1.1-4.2-1.7-6.4-1.7c-2.2,0-4.4,0.6-6.4,1.7l-24,13.9l24,13.9c7.9,4.5,12.8,13,12.8,22.1v77.7c0,9.1-4.9,17.6-12.8,22.1
			l-24,13.9l24,13.9C541,504.4,545.8,504.4,549.8,502.1z"/>
	</g>
	<path class="st1" d="M623.5,352.4l-67.3-38.8c-7.9-4.5-17.7-4.5-25.5,0l-30.4,17.6l-30.4-17.6c-7.9-4.5-17.7-4.5-25.5,0l-67.3,38.8
		c-7.9,4.5-12.8,13-12.8,22.1v77.7c0,9.1,4.9,17.6,12.8,22.1l67.3,38.8c3.9,2.3,8.4,3.4,12.8,3.4c4.4,0,8.8-1.1,12.8-3.4l30.4-17.6
		l30.4,17.6c3.9,2.3,8.4,3.4,12.8,3.4c4.4,0,8.8-1.1,12.8-3.4l67.3-38.8c7.9-4.5,12.8-13,12.8-22.1v-77.7
		C636.2,365.4,631.3,357,623.5,352.4z M537,452.2c0,4.2-2.1,8-5.4,10.4h-62.8c-3.4-2.4-5.4-6.2-5.4-10.4v-14.6H537V452.2z
		 M537,412.7h-73.6v-25H537V412.7z M463.4,502.1c-3.9,2.3-8.8,2.3-12.7,0l-67.3-38.8c-3.9-2.3-6.4-6.5-6.4-11v-77.7
		c0-4.5,2.4-8.8,6.4-11l67.3-38.8c2-1.1,4.2-1.7,6.4-1.7c2.2,0,4.4,0.6,6.4,1.7l24,13.9l-24,13.9c-7.9,4.5-12.8,13-12.8,22.1v77.7
		c0,9.1,4.9,17.6,12.8,22.1l24,13.9L463.4,502.1z M623.4,452.2c0,4.5-2.4,8.8-6.4,11l-67.3,38.8c-3.9,2.3-8.8,2.3-12.7,0l-24-13.9
		l24-13.9c7.9-4.5,12.8-13,12.8-22.1v-77.7c0-9.1-4.9-17.6-12.8-22.1l-24-13.9l24-13.9c2-1.1,4.2-1.7,6.4-1.7c2.2,0,4.4,0.6,6.4,1.7
		l67.3,38.8c3.9,2.3,6.4,6.5,6.4,11V452.2z"/>
</g>
</svg>
